<?xml version="1.0" encoding="utf-8"?>
<svg width="30px" height="30px" viewBox="0 0 30 30" version="1.1" xmlns:xlink="http://www.w3.org/1999/xlink" xmlns="http://www.w3.org/2000/svg">
  <defs>
    <path d="M0 0L30 0L30 30L0 30L0 0Z" id="path_1" />
    <clipPath id="mask_1">
      <use xlink:href="#path_1" />
    </clipPath>
  </defs>
  <g id="Synchronize-icon">
    <path d="M0 0L30 0L30 30L0 30L0 0Z" id="Background" fill="#FFFFFF" fill-opacity="0" fill-rule="evenodd" stroke="none" />
    <g clip-path="url(#mask_1)">
      <path d="M15 3C8.37888 3 2.99997 8.37891 2.99997 15C2.99763 15.2156 3.11013 15.4172 3.29763 15.5273C3.48513 15.6352 3.71482 15.6352 3.90232 15.5273C4.08982 15.4172 4.20232 15.2156 4.19998 15C4.19998 9.02812 9.0281 4.2 15 4.2C18.7476 4.2 22.0359 6.10781 23.9742 9L19.8 9C19.5844 8.99766 19.3828 9.11016 19.2726 9.29766C19.1648 9.48516 19.1648 9.71484 19.2726 9.90234C19.3828 10.0898 19.5844 10.2023 19.8 10.2L25.8 10.2L25.8 4.2C25.8023 4.03828 25.739 3.88125 25.6242 3.76641C25.5093 3.65156 25.3523 3.58828 25.1906 3.59063C24.8601 3.59766 24.5953 3.86953 24.6 4.2L24.6 7.80703C22.4086 4.88906 18.9234 3 15 3L15 3ZM26.3906 14.3906C26.0601 14.3977 25.7953 14.6695 25.8 15C25.8 20.9719 20.9719 25.8 15 25.8C11.2523 25.8 7.96171 23.8922 6.02577 21L10.2 21C10.4156 21.0047 10.6172 20.8898 10.7273 20.7047C10.8351 20.5172 10.8351 20.2852 10.7273 20.0977C10.6172 19.9125 10.4156 19.7977 10.2 19.8L5.06718 19.8C4.98983 19.7859 4.91249 19.7859 4.83514 19.8L4.19999 19.8L4.19999 25.8C4.19764 26.0156 4.31014 26.2172 4.49764 26.3273C4.68514 26.4352 4.91483 26.4352 5.10233 26.3273C5.28983 26.2172 5.40233 26.0156 5.39999 25.8L5.39999 22.1906C7.58905 25.1086 11.0765 27 15 27C21.6211 27 27 21.6211 27 15C27.0023 14.8383 26.9391 14.6812 26.8242 14.5664C26.7094 14.4516 26.5523 14.3883 26.3906 14.3906L26.3906 14.3906Z" id="Shape" fill="#E84545" fill-rule="evenodd" stroke="none" />
    </g>
  </g>
</svg>