<?xml version="1.0" encoding="utf-8"?>
<svg width="30px" height="30px" viewBox="0 0 30 30" version="1.1" xmlns:xlink="http://www.w3.org/1999/xlink" xmlns="http://www.w3.org/2000/svg">
  <defs>
    <path d="M0 0L30 0L30 30L0 30L0 0Z" id="path_1" />
    <clipPath id="mask_1">
      <use xlink:href="#path_1" />
    </clipPath>
  </defs>
  <g id="Settings-icon-2">
    <path d="M0 0L30 0L30 30L0 30L0 0Z" id="Background" fill="#FFFFFF" fill-opacity="0" fill-rule="evenodd" stroke="none" />
    <g clip-path="url(#mask_1)">
      <path d="M13.323 1.2C13.0293 1.20015 12.7789 1.4129 12.7313 1.70273L12.1477 5.27578C11.4459 5.47992 10.7767 5.75536 10.1461 6.09843L7.19766 3.99258C6.95929 3.82236 6.63287 3.84911 6.42539 4.05586L4.09102 6.38789C3.8851 6.59395 3.85693 6.91815 4.02422 7.15664L6.09844 10.1238C5.75007 10.7582 5.46853 11.4311 5.25938 12.1394L1.70156 12.7312C1.41266 12.7799 1.20114 13.0301 1.20117 13.323L1.20117 16.623C1.20064 16.9141 1.40913 17.1636 1.6957 17.2148L5.25586 17.8453C5.46388 18.5524 5.74363 19.2258 6.09258 19.8609L3.99258 22.7988C3.82237 23.0372 3.84912 23.3636 4.05586 23.5711L6.38906 25.9055C6.59466 26.1111 6.91811 26.1398 7.15664 25.9734L10.1297 23.8922C10.7622 24.2373 11.433 24.5148 12.1371 24.7207L12.7313 28.2984C12.7794 28.5878 13.0297 28.7999 13.323 28.8L16.623 28.8C16.9145 28.8004 17.1642 28.5913 17.2148 28.3043L17.8512 24.7125C18.5524 24.5034 19.22 24.2218 19.8492 23.8746L22.8422 25.9746C23.0807 26.1419 23.4049 26.1137 23.6109 25.9078L25.9441 23.5723C26.1518 23.3641 26.1781 23.0362 26.0063 22.7977L23.8723 19.8352C24.2135 19.209 24.4883 18.5453 24.6926 17.8488L28.3031 17.216C28.5902 17.1653 28.7993 16.9157 28.7988 16.6242L28.7988 13.3242C28.7987 13.0305 28.5859 12.7801 28.2961 12.7324L24.6914 12.143C24.4858 11.4473 24.2102 10.7848 23.8687 10.159L25.9734 7.16015C26.1407 6.92166 26.1126 6.59747 25.9066 6.3914L23.5723 4.0582C23.3641 3.85053 23.0362 3.82423 22.7977 3.99609L19.8434 6.1207C19.2139 5.77488 18.5458 5.49479 17.843 5.2875L17.2148 1.69687C17.1647 1.40937 16.9149 1.19967 16.623 1.2L13.323 1.2L13.323 1.2ZM13.8339 2.4L16.1191 2.4L16.7167 5.81133C16.7574 6.04508 16.9319 6.23294 17.1621 6.29062C18.0396 6.5093 18.8637 6.85593 19.616 7.31132C19.8216 7.43589 20.0816 7.42575 20.2769 7.28554L23.0847 5.26757L24.7007 6.88359L22.7015 9.73242C22.5651 9.92658 22.5559 10.1829 22.6781 10.3863C23.129 11.1369 23.471 11.9558 23.6894 12.8285C23.7475 13.0608 23.9382 13.2363 24.1746 13.275L27.5988 13.8352L27.5988 16.1203L24.1675 16.7227C23.9336 16.7641 23.7461 16.9396 23.6894 17.1703C23.4735 18.0419 23.1313 18.8608 22.6804 19.6113C22.5567 19.8169 22.5673 20.0763 22.7074 20.2711L24.7347 23.0848L23.1187 24.702L20.2746 22.7062C20.0794 22.5695 19.8218 22.5613 19.6183 22.6852C18.8698 23.1405 18.0448 23.4888 17.1703 23.7105C16.9413 23.7683 16.7674 23.955 16.7261 24.1875L16.1203 27.6L13.8316 27.6L13.2667 24.2027C13.2275 23.9665 13.0515 23.7763 12.8191 23.7187C11.9411 23.5023 11.1132 23.1562 10.3558 22.7016C10.1527 22.5799 9.89697 22.5891 9.70308 22.725L6.8812 24.702L5.26401 23.0824L7.25855 20.2945C7.39787 20.0993 7.40755 19.8398 7.28315 19.6348C6.82354 18.8753 6.47594 18.0475 6.25659 17.1656C6.19926 16.9362 6.01249 16.7618 5.77964 16.7203L2.40112 16.1203L2.40112 13.8316L5.7773 13.2703C6.01317 13.2312 6.20331 13.0558 6.26128 12.8238C6.48251 11.9389 6.82995 11.1112 7.28784 10.3535C7.41121 10.1503 7.40294 9.89333 7.26675 9.69843L5.29565 6.88125L6.91401 5.26406L9.71128 7.26328C9.90576 7.40195 10.164 7.41208 10.3687 7.28906C11.1221 6.83657 11.9519 6.49325 12.8308 6.27773C13.0644 6.22023 13.241 6.02882 13.2796 5.7914L13.8339 2.4L13.8339 2.4ZM15.0001 10.2C12.3562 10.2 10.2001 12.3561 10.2001 15C10.2001 17.6439 12.3562 19.8 15.0001 19.8C17.6439 19.8 19.8001 17.6439 19.8001 15C19.8001 12.3561 17.6439 10.2 15.0001 10.2L15.0001 10.2ZM15 11.4C16.9954 11.4 18.6 13.0047 18.6 15C18.6 16.9953 16.9954 18.6 15 18.6C13.0047 18.6 11.4 16.9953 11.4 15C11.4 13.0047 13.0047 11.4 15 11.4L15 11.4Z" id="Shape" fill="#E84545" fill-rule="evenodd" stroke="none" />
    </g>
  </g>
</svg>